<svg viewBox="0 0 500 500" width="500" height="500" version="1.1" baseProfile="full" xmlns="http://www.w3.org/2000/svg"><g><path d="M112,203Q109,185 98,133L94,133Q105,186 108,203M98,133Q96,128 110,124L108,120Q93,125 94,133M110,124Q185,101 205,135L209,133Q186,97 108,120M205,135Q219,156 201,185L205,187Q223,156 209,133M201,185Q200,188 193,195L195,197Q203,190 205,187M193,195Q188,202 219,195L219,191Q191,199 195,197M219,195Q245,188 294,203L296,199Q246,184 219,191M294,203Q322,210 294,235L296,237Q326,209 296,199M294,235Q282,246 207,256L207,260Q283,249 296,237M207,256Q166,262 165,250L161,250Q165,266 207,260M165,250Q164,246 185,234L183,230Q160,244 161,250M185,234Q197,225 185,243L189,245Q200,222 183,230M185,243Q168,274 73,269L73,273Q170,277 189,245M73,269Q43,268 35,233L31,233Q40,271 73,273M35,233Q28,204 49,177L45,175Q24,203 31,233M49,177Q59,163 93,189L95,185Q59,159 45,175M93,189Q97,192 104,192L104,188Q99,188 95,185" fill="#803380"></path><path d="M131,112Q135,124 147,136L149,134Q138,122 135,110" fill="#803380"></path><path d="M90,157Q189,136 243,136L243,132Q188,132 90,153M243,136Q248,134 209,141L209,145Q256,134 243,132" fill="#803380"></path></g></svg>