<svg viewBox="0 0 500 500" width="500" height="500" version="1.1" baseProfile="full" xmlns="http://www.w3.org/2000/svg"><g><path d="M272,122Q257,150 252,174L256,174Q261,151 276,124M252,174Q245,214 279,220L279,216Q248,212 256,174M279,220Q304,224 345,197L343,193Q303,220 279,216M345,197Q348,193 308,166L306,170Q344,195 343,193M308,166Q257,132 158,139L158,143Q256,136 306,170M158,139Q123,142 106,167L110,169Q125,145 158,143M106,167Q97,183 137,190L137,186Q101,181 110,169M137,190Q176,196 364,147L362,143Q175,192 137,186M364,147Q366,146 371,144L369,140Q364,143 362,143M371,144Q376,140 330,154L332,158Q368,142 369,140M330,154Q286,171 157,181L157,185Q286,174 332,158M157,181Q156,181 147,182L147,186Q157,185 157,185" fill="#803380"></path></g></svg>